<svg id="Layer_1" data-name="Layer 1" xmlns="http://www.w3.org/2000/svg" width="657.98" height="181.51" viewBox="0 0 657.98 181.51"><defs><style>.cls-1{fill:#1e3038;}</style></defs><path class="cls-1" d="M2.91,154.8H20.16V159H7.54v6.41h12v4.19h-12v7.06H20.82v4.2H2.91Z" transform="translate(-2.72 0)"/><path class="cls-1" d="M25.38,180.85v-26h6.14l12.62,19.35h.08V154.8h4.63v26H43l-12.88-20H30v20Z" transform="translate(-2.72 0)"/><path class="cls-1" d="M76.15,158.26l-3.61,2.65a7.15,7.15,0,0,0-5.48-2.58c-5.34,0-8.94,4.12-8.94,9.31,0,5.37,3.46,9.67,8.94,9.67a7.33,7.33,0,0,0,5.85-3.16l3.82,2.72A11.55,11.55,0,0,1,67,181.51c-8,0-13.76-5.48-13.76-13.58S58.71,154.14,67,154.14A11.48,11.48,0,0,1,76.15,158.26Z" transform="translate(-2.72 0)"/><path class="cls-1" d="M92.14,181.51c-8,0-13.68-5.52-13.68-13.58,0-7.5,4.85-13.79,13.94-13.79,8.24,0,13.69,5.52,13.69,13.65S100.16,181.51,92.14,181.51Zm.11-4.2c5.63,0,9-4.37,9-9.67s-3.68-9.31-9-9.31-8.91,4.16-8.91,9.31C83.31,173,86.66,177.31,92.25,177.31Z" transform="translate(-2.72 0)"/><path class="cls-1" d="M110.5,180.85v-26h6.14l12.62,19.35h.07V154.8H134v26h-5.89l-12.87-20h-.08v20Z" transform="translate(-2.72 0)"/><path class="cls-1" d="M137.13,154.8h20.6V159h-8v21.86h-4.64V159h-8Z" transform="translate(-2.72 0)"/><path class="cls-1" d="M160.89,180.85v-26h9.2c5,0,9.56,1.77,9.56,7.47a6.68,6.68,0,0,1-6,7.06l6.92,11.52h-5.6l-6-11h-3.38v11Zm4.64-15h3.82c2.65,0,5.45-.37,5.45-3.61,0-3-2.69-3.46-5.12-3.46h-4.15Z" transform="translate(-2.72 0)"/><path class="cls-1" d="M196.35,181.51c-8,0-13.68-5.52-13.68-13.58,0-7.5,4.85-13.79,13.94-13.79,8.24,0,13.68,5.52,13.68,13.65S204.37,181.51,196.35,181.51Zm.11-4.2c5.63,0,9-4.37,9-9.67s-3.68-9.31-9-9.31-8.9,4.16-8.9,9.31C187.52,173,190.87,177.31,196.46,177.31Z" transform="translate(-2.72 0)"/><path class="cls-1" d="M236,154.8c6.73,0,13.13,4.27,13.13,13,0,9.24-8,13-13.69,13h-9.82v-26Zm-2.1,21.85c5.55,0,10.37-2.5,10.37-8.83s-4.08-8.83-9.75-8.83h-4.26v17.66Z" transform="translate(-2.72 0)"/><path class="cls-1" d="M253.51,154.8h17.25V159H258.15v6.41h12v4.19h-12v7.06h13.28v4.2H253.51Z" transform="translate(-2.72 0)"/><path class="cls-1" d="M284,180.85l11.33-26h4l11.22,26h-5.3l-2.43-6H291.51l-2.36,6Zm9.12-9.94h8.09l-4-10.59Z" transform="translate(-2.72 0)"/><path class="cls-1" d="M318.06,176.65h11.08v4.2H313.43v-26h4.63Z" transform="translate(-2.72 0)"/><path class="cls-1" d="M326.52,154.8h20.6V159h-8v21.86h-4.63V159h-8Z" transform="translate(-2.72 0)"/><path class="cls-1" d="M344,180.85l11.33-26h4l11.22,26H365.3l-2.43-6h-11.3l-2.35,6Zm9.13-9.94h8.09l-4-10.59Z" transform="translate(-2.72 0)"/><path class="cls-1" d="M384.38,180.85v-26h8.94c3.35,0,9.42,1,9.42,7.47,0,5.44-3.2,7.8-10.15,7.8H389v10.78ZM389,166.09h3c2.72,0,5.84-.29,5.84-3.68,0-2.46-1.8-3.64-5.4-3.64H389Z" transform="translate(-2.72 0)"/><path class="cls-1" d="M406.86,154.8h17.25V159H411.49v6.41h12v4.19h-12v7.06h13.28v4.2H406.86Z" transform="translate(-2.72 0)"/><path class="cls-1" d="M429.33,180.85v-26h9.2c5,0,9.56,1.77,9.56,7.47a6.68,6.68,0,0,1-6,7.06L449,180.85h-5.59l-6-11H434v11Zm4.64-15h3.82c2.65,0,5.45-.37,5.45-3.61,0-3-2.69-3.46-5.12-3.46H434Z" transform="translate(-2.72 0)"/><path class="cls-1" d="M452.5,154.8h16.82V159H457.14v6.85h11.48V170H457.14v10.82H452.5Z" transform="translate(-2.72 0)"/><path class="cls-1" d="M485.91,181.51c-8,0-13.69-5.52-13.69-13.58,0-7.5,4.86-13.79,13.94-13.79,8.25,0,13.69,5.52,13.69,13.65S493.93,181.51,485.91,181.51Zm.11-4.2c5.63,0,9-4.37,9-9.67s-3.68-9.31-9-9.31-8.9,4.16-8.9,9.31C477.08,173,480.42,177.31,486,177.31Z" transform="translate(-2.72 0)"/><path class="cls-1" d="M504.26,180.85v-26h9.2c5,0,9.56,1.77,9.56,7.47a6.68,6.68,0,0,1-6,7.06l6.91,11.52h-5.59l-6-11h-3.39v11Zm4.63-15h3.83c2.65,0,5.45-.37,5.45-3.61,0-3-2.69-3.46-5.12-3.46h-4.16Z" transform="translate(-2.72 0)"/><path class="cls-1" d="M527.54,154.8h7.07l6.95,18.25,7-18.25h7v26h-4.42V159.21h-.07l-7.91,21.64h-3.24L532,159.21H532v21.64h-4.42Z" transform="translate(-2.72 0)"/><path class="cls-1" d="M558.59,180.85l11.33-26h4l11.22,26h-5.3l-2.43-6H566.13l-2.35,6Zm9.12-9.94h8.09l-4-10.59Z" transform="translate(-2.72 0)"/><path class="cls-1" d="M588.05,180.85v-26h6.14l12.62,19.35h.08V154.8h4.63v26h-5.88l-12.88-20h-.07v20Z" transform="translate(-2.72 0)"/><path class="cls-1" d="M638.81,158.26l-3.6,2.65a7.15,7.15,0,0,0-5.48-2.58c-5.34,0-8.94,4.12-8.94,9.31,0,5.37,3.46,9.67,8.94,9.67a7.33,7.33,0,0,0,5.85-3.16l3.82,2.72a11.55,11.55,0,0,1-9.71,4.64c-8,0-13.76-5.48-13.76-13.58s5.45-13.79,13.76-13.79A11.45,11.45,0,0,1,638.81,158.26Z" transform="translate(-2.72 0)"/><path class="cls-1" d="M642.53,154.8h17.25V159H647.16v6.41h12v4.19h-12v7.06h13.28v4.2H642.53Z" transform="translate(-2.72 0)"/><path class="cls-1" d="M2.72,0V134.9H45.13V112.39H25.24V78.61H45.13V56.1H25.24V22.51H45.13V0Zm48,0V22.51h9.75l9.76,10.14V46.16L60.7,56.1H50.76V78.61h9.57l9.94,10.32v13.51l-9.57,10H50.76V134.9H70.27l22.51-22.51V78.61h-.37L81.34,67.54,92.78,56.1V22.51h-.37L70.27,0Z" transform="translate(-2.72 0)"/><path class="cls-1" d="M101,0l.19,134.9h22.32V41.09l20.83,82.18,11.07-45L135.75,0ZM181,0,147.38,134.9H169.9L191.28,49V134.9h22.33V0Z" transform="translate(-2.72 0)"/><polygon class="cls-1" points="296.34 0 273.82 22.52 273.82 45.03 296.34 45.03 296.34 32.46 305.91 22.52 331.8 22.52 341.37 32.46 341.37 46.16 331.8 56.1 329.74 56.1 307.78 56.1 296.34 56.1 273.82 78.61 273.82 134.9 296.34 134.9 363.88 134.9 363.88 112.39 296.34 112.39 296.34 89.87 307.78 78.61 341.37 78.61 363.88 56.29 363.88 55.91 363.88 27.77 363.88 22.52 341.37 0 296.34 0"/><path class="cls-1" d="M397.19,102.44v-70l9.57-9.95h25.89l9.57,10.14v69.6l-9.57,10.14H406.76ZM397.19,0,374.67,22.51v89.88l22.52,22.51h45l22.51-22.51V22.51L442.22,0Z" transform="translate(-2.72 0)"/><polygon class="cls-1" points="492.49 0 469.98 22.52 469.98 45.03 492.49 45.03 492.49 32.46 502.06 22.52 527.95 22.52 537.52 32.46 537.52 46.16 527.95 56.1 525.89 56.1 503.94 56.1 492.49 56.1 469.98 78.61 469.98 134.9 492.49 134.9 560.04 134.9 560.04 112.39 492.49 112.39 492.49 89.87 503.94 78.61 537.52 78.61 560.04 56.29 560.04 55.91 560.04 27.77 560.04 22.52 537.52 0 492.49 0"/><polygon class="cls-1" points="567.92 0 567.92 56.1 567.92 56.29 590.43 78.61 601.88 78.61 623.83 78.61 625.89 78.61 635.46 88.75 635.46 102.44 625.89 112.39 600 112.39 590.43 102.25 590.43 89.87 567.92 89.87 567.92 112.39 590.43 134.9 635.46 134.9 657.98 112.39 657.98 107.13 657.98 78.99 657.98 78.61 635.46 56.1 601.88 56.1 590.43 45.03 590.43 22.52 657.98 22.52 657.98 0 567.92 0"/><rect class="cls-1" x="225.29" y="57.34" width="34.29" height="22.83"/></svg>