<svg id="Layer_1" data-name="Layer 1" xmlns="http://www.w3.org/2000/svg" xmlns:xlink="http://www.w3.org/1999/xlink" width="482.3" height="81.45" viewBox="0 0 482.3 81.45"><defs><style>.cls-1{fill:none;}.cls-2{clip-path:url(#clip-path);}.cls-3{fill:#003e6e;}.cls-4{fill:#ffdc00;}</style><clipPath id="clip-path" transform="translate(0 0)"><rect class="cls-1" width="482.3" height="81.45"/></clipPath></defs><g class="cls-2"><path class="cls-3" d="M153.44,32.17a17.94,17.94,0,0,0-10.11,2.75l-.39.26,2.21,4.39.5-.33a13.08,13.08,0,0,1,7.27-2.12c2.85,0,6.25.88,6.25,5.11V44a15.68,15.68,0,0,0-6.5-1.33c-3.43,0-6.17.83-8.14,2.47a8.45,8.45,0,0,0-3,6.82,8.14,8.14,0,0,0,3.27,7,13.54,13.54,0,0,0,8.35,2.4c4.62,0,8.36-1.34,11.12-4l.16-.16V41.94c0-6.12-4.11-9.77-11-9.77m5.73,22.49a9.35,9.35,0,0,1-6.08,1.78c-3.89,0-6.21-1.69-6.21-4.52s2.31-4.45,6.33-4.45a12.79,12.79,0,0,1,6,1.35Zm57-1.71a6.89,6.89,0,0,1-5.88,3.26,6.67,6.67,0,0,1-5.43-2.49,10.81,10.81,0,0,1-2.06-7,10.78,10.78,0,0,1,2.06-6.95,6.61,6.61,0,0,1,5.38-2.49h.09A6.7,6.7,0,0,1,216,40.49l.31.45,4.23-3.12-.28-.43a11.45,11.45,0,0,0-10.09-5.22,12,12,0,0,0-9.42,4c-2.34,2.67-3.53,6.23-3.53,10.58s1.19,7.92,3.53,10.56a12,12,0,0,0,9.48,4A11.38,11.38,0,0,0,220.41,56l.28-.43-4.23-3.05Zm231.72-32a3.41,3.41,0,1,0,3.43,3.43,3.35,3.35,0,0,0-3.43-3.43M183,32.28c-3.22,0-5.7,1-7.38,3V32.76h-5.24v28h5.38V44.72a8.37,8.37,0,0,1,1.64-5.39,5.66,5.66,0,0,1,4.73-2c3.58,0,5.32,2.06,5.32,6.3v17.1h5.38V42.94a11.22,11.22,0,0,0-2.61-7.79A9.34,9.34,0,0,0,183,32.28M478.67,36.2a12.65,12.65,0,0,0-9.87-4c-4.14,0-7.45,1.35-9.83,4s-3.63,6.22-3.63,10.56A15.23,15.23,0,0,0,459,57.3a14.06,14.06,0,0,0,19.71,0,15.18,15.18,0,0,0,3.63-10.54c0-4.34-1.22-7.89-3.63-10.56m-4.06,17.54a7.89,7.89,0,0,1-11.58,0,10.54,10.54,0,0,1-2.17-7A10.43,10.43,0,0,1,463,39.82a7.83,7.83,0,0,1,11.57,0,10.56,10.56,0,0,1,2.15,6.95,10.68,10.68,0,0,1-2.14,7M132.41,39.32c3-1.48,4.77-4.73,4.77-8.95,0-6.92-4.62-10.74-13-10.74H109.88V60.77h15.51c4.19,0,7.44-1.05,9.66-3.12a10.91,10.91,0,0,0,3.35-8.39,11,11,0,0,0-2-6.73,10.12,10.12,0,0,0-4-3.21m-17-14.51h7.86c5.86,0,8.37,1.81,8.37,6.05S129.15,37,124,37h-8.57Zm9,30.78h-9V42.19h8.85c3.9,0,8.54,1.22,8.54,7,0,4.3-2.78,6.39-8.43,6.39M380.72,56a3.56,3.56,0,0,1-2.65-.77c-.49-.51-.74-1.61-.74-3.29V37.83h6.1V32.76h-6.1V24.68H372v8.08h-3.66v5.07H372v14.8c0,6,2.27,8.48,7.85,8.48a12.19,12.19,0,0,0,3.47-.37l.38-.11V55.7l-.64.12a11.88,11.88,0,0,1-2.33.22m17.81-23.87a11.9,11.9,0,0,0-9.45,4.12,15.45,15.45,0,0,0-3.56,10.47,15.3,15.3,0,0,0,3.59,10.51,12.51,12.51,0,0,0,9.81,4.06c4.59,0,8.7-1.8,11-4.83l.27-.35-3.25-3.58-.39.45a9.41,9.41,0,0,1-7.26,3.31A7.76,7.76,0,0,1,393.36,54,9.67,9.67,0,0,1,391,48h19.61l.05-.47A24.15,24.15,0,0,0,410.8,45a13,13,0,0,0-3.38-9.27,11.74,11.74,0,0,0-8.89-3.57m-7.16,11a8.3,8.3,0,0,1,2.47-4.27,6.86,6.86,0,0,1,4.86-1.81,6.24,6.24,0,0,1,4.58,1.77,7.49,7.49,0,0,1,2.07,4.31Zm35.77-11a18.74,18.74,0,0,0-6.59,1.14,16.22,16.22,0,0,0-5,2.81l-.19.16V72.39h5.38V59a11.87,11.87,0,0,0,7.46,2.3,11.23,11.23,0,0,0,8.89-3.91c2.17-2.55,3.27-6.12,3.27-10.61s-1.18-8.22-3.52-10.76-5.59-3.83-9.69-3.83m.23,24a8.87,8.87,0,0,1-6.58-2.69V39.11a10.09,10.09,0,0,1,6.29-1.85c5,0,7.78,3.37,7.78,9.5s-2.66,9.45-7.49,9.45M355.61,32.28c-3.21,0-5.69,1-7.37,3V32.76H343v28h5.38V44.72A8.37,8.37,0,0,1,350,39.33a5.65,5.65,0,0,1,4.73-2c3.58,0,5.32,2.06,5.32,6.3v17.1h5.38V42.94a11.22,11.22,0,0,0-2.61-7.79,9.35,9.35,0,0,0-7.23-2.87M286.29,44.53,270.05,19.71l-.16-.25h-3.74V60.77h5.49V31.5l12.88,19.78.16.24h3l13.13-19.89V60.77h5.6V19.46h-3.74Zm38.56-12.36c-4.15,0-7.46,1.35-9.84,4s-3.63,6.22-3.63,10.56A15.18,15.18,0,0,0,315,57.3a14.05,14.05,0,0,0,19.7,0,15.18,15.18,0,0,0,3.63-10.54c0-4.34-1.22-7.89-3.63-10.56a12.65,12.65,0,0,0-9.86-4m5.8,21.57a7.89,7.89,0,0,1-11.58,0,10.54,10.54,0,0,1-2.17-7,10.43,10.43,0,0,1,2.17-6.94,7.83,7.83,0,0,1,11.57,0,10.56,10.56,0,0,1,2.15,6.95,10.68,10.68,0,0,1-2.14,7M235.79,32.17c-4.14,0-7.45,1.35-9.83,4s-3.63,6.22-3.63,10.56A15.23,15.23,0,0,0,226,57.3a14.06,14.06,0,0,0,19.71,0,15.23,15.23,0,0,0,3.63-10.54,15.27,15.27,0,0,0-3.63-10.56,12.65,12.65,0,0,0-9.87-4m5.81,21.57a7.21,7.21,0,0,1-5.78,2.53,7.14,7.14,0,0,1-5.8-2.53,10.54,10.54,0,0,1-2.17-7A10.43,10.43,0,0,1,230,39.82a7.83,7.83,0,0,1,11.57,0,10.56,10.56,0,0,1,2.15,6.95,10.68,10.68,0,0,1-2.14,7m203.59,7h5.37v-28h-5.37Z" transform="translate(0 0)"/><path class="cls-4" d="M12.85,27c-.84.7-1.13,1.74-.65,2.32s1.56.47,2.4-.23,1.13-1.75.64-2.32-1.55-.48-2.39.23m-2-5.27a23.31,23.31,0,0,1,5.35-1.25,30.68,30.68,0,0,0,7.28-1.61L75.19,0H0V29.91a22.92,22.92,0,0,1,10.82-8.22m15.62,1.68A13.53,13.53,0,0,0,17.55,35.5a.18.18,0,0,0,.36,0,11.37,11.37,0,0,1,7.28-8.86L75.42,8.38a1,1,0,0,1,1.23,1.51c-4.74,7.5-20.35,29.71-43.6,38.17a11.72,11.72,0,0,1-11-1.92,1.29,1.29,0,0,0-2.05.72A10.65,10.65,0,0,0,25.09,58.3l23,13.25a40.52,40.52,0,0,1,11.48,9.9H81.45V3.35l-55,20M0,53.51V81.45H26L8.2,66A27.51,27.51,0,0,1,0,53.51" transform="translate(0 0)"/></g></svg>